<svg id="icons" xmlns="http://www.w3.org/2000/svg" viewBox="0 0 128 128"><defs><style>.cls-1{fill:#fff;}.cls-2{fill:#303442;opacity:0.08;}.cls-3{fill:#ffe300;}.cls-4{fill:#f54b55;}.cls-5{fill:none;stroke:#303442;stroke-linecap:round;stroke-linejoin:round;stroke-width:4px;}</style></defs><title>document-multiple</title><path class="cls-1" d="M102,39.66V94a3.9989,3.9989,0,0,1-4,4H92V51.66a4.008,4.008,0,0,0-1.17-2.83L81,39l1-1h19.64A4.05836,4.05836,0,0,1,102,39.66Z"/><path class="cls-2" d="M102,88v6a4,4,0,0,1-4,4H92V88Z"/><path class="cls-3" d="M92,98v8a3.9989,3.9989,0,0,1-4,4H30a3.9989,3.9989,0,0,1-4-4V34a3.9989,3.9989,0,0,1,4-4H70.34a4.05836,4.05836,0,0,1,1.66.36V50H91.64A4.05836,4.05836,0,0,1,92,51.66Z"/><path class="cls-2" d="M92,100v6a3.99891,3.99891,0,0,1-4,4H30a3.99891,3.99891,0,0,1-4-4v-6Z"/><path class="cls-1" d="M101.64,38H82V18.36a4.08921,4.08921,0,0,1,1.17.81l17.66,17.66A4.08921,4.08921,0,0,1,101.64,38Z"/><path class="cls-1" d="M82,18.36V38l-1,1-7.83-7.83A4.008,4.008,0,0,0,70.34,30H36V22a3.9989,3.9989,0,0,1,4-4H80.34A4.05836,4.05836,0,0,1,82,18.36Z"/><path class="cls-4" d="M90.83,48.83A4.08921,4.08921,0,0,1,91.64,50H72V30.36a4.08921,4.08921,0,0,1,1.17.81L81,39Z"/><path class="cls-5" d="M91.64,50a4.08921,4.08921,0,0,0-.81-1.17L81,39l-7.83-7.83A4.008,4.008,0,0,0,70.34,30H30a3.9989,3.9989,0,0,0-4,4v72a3.9989,3.9989,0,0,0,4,4H88a3.9989,3.9989,0,0,0,4-4V51.66A4.05836,4.05836,0,0,0,91.64,50Z"/><polyline class="cls-5" points="72 30.36 72 50 91.64 50"/><path class="cls-5" d="M92,98h6a3.9989,3.9989,0,0,0,4-4V39.66a4.008,4.008,0,0,0-1.17-2.83L83.17,19.17A4.008,4.008,0,0,0,80.34,18H40a3.9989,3.9989,0,0,0-4,4v8"/><polyline class="cls-5" points="82 18.36 82 38 101.64 38"/><line class="cls-5" x1="80" y1="58" x2="38" y2="58"/><line class="cls-5" x1="60" y1="46" x2="38" y2="46"/><line class="cls-5" x1="80" y1="70" x2="38" y2="70"/><line class="cls-5" x1="80" y1="82" x2="38" y2="82"/><line class="cls-5" x1="68" y1="94" x2="38" y2="94"/></svg>